<svg width="23" height="20" viewBox="0 0 23 20" fill="none" xmlns="http://www.w3.org/2000/svg">
<path d="M8.60959 18.3333L8.24005 15.6666C8.03988 15.5972 7.85126 15.5138 7.67419 15.4166C7.49711 15.3194 7.32389 15.2152 7.15452 15.1041L4.40605 16.1458L1.86545 12.1875L4.24437 10.5625C4.22898 10.4652 4.22128 10.3715 4.22128 10.2812V9.71871C4.22128 9.62843 4.22898 9.53468 4.24437 9.43746L1.86545 7.81246L4.40605 3.85413L7.15452 4.89579C7.32389 4.78468 7.50096 4.68052 7.68574 4.58329C7.87051 4.48607 8.05528 4.40274 8.24005 4.33329L8.60959 1.66663H13.6908L14.0603 4.33329C14.2605 4.40274 14.4491 4.48607 14.6262 4.58329C14.8033 4.68052 14.9765 4.78468 15.1459 4.89579L17.8943 3.85413L20.4349 7.81246L18.056 9.43746C18.0714 9.53468 18.0791 9.62843 18.0791 9.71871V10.2812C18.0791 10.3715 18.0637 10.4652 18.0329 10.5625L20.4118 12.1875L17.8712 16.1458L15.1459 15.1041C14.9765 15.2152 14.7994 15.3194 14.6146 15.4166C14.4299 15.5138 14.2451 15.5972 14.0603 15.6666L13.6908 18.3333H8.60959ZM11.1964 12.9166C12.0894 12.9166 12.8516 12.6319 13.4829 12.0625C14.1142 11.493 14.4299 10.8055 14.4299 9.99996C14.4299 9.1944 14.1142 8.5069 13.4829 7.93746C12.8516 7.36802 12.0894 7.08329 11.1964 7.08329C10.2879 7.08329 9.5219 7.36802 8.8983 7.93746C8.27469 8.5069 7.96289 9.1944 7.96289 9.99996C7.96289 10.8055 8.27469 11.493 8.8983 12.0625C9.5219 12.6319 10.2879 12.9166 11.1964 12.9166Z" fill="white"/>
</svg>
