<svg width="20" height="20" viewBox="0 0 20 20" fill="none" xmlns="http://www.w3.org/2000/svg">
<path d="M11.6666 1.66669H4.99998C4.55795 1.66669 4.13403 1.84228 3.82147 2.15484C3.50891 2.4674 3.33331 2.89133 3.33331 3.33335V16.6667C3.33331 17.1087 3.50891 17.5326 3.82147 17.8452C4.13403 18.1578 4.55795 18.3334 4.99998 18.3334H15C15.442 18.3334 15.8659 18.1578 16.1785 17.8452C16.4911 17.5326 16.6666 17.1087 16.6666 16.6667V6.66669M11.6666 1.66669L16.6666 6.66669M11.6666 1.66669L11.6666 6.66669H16.6666M13.3333 10.8334H6.66665M13.3333 14.1667H6.66665M8.33331 7.50002H6.66665" stroke="#1E1E1E" stroke-width="2" stroke-linecap="round" stroke-linejoin="round"/>
</svg>
