<svg width="20" height="20" viewBox="0 0 20 20" fill="none" xmlns="http://www.w3.org/2000/svg">
<g clip-path="url(#clip0_97_83)">
<path d="M12.5 5.83331H15C15.5472 5.83331 16.089 5.94109 16.5945 6.15048C17.1 6.35988 17.5593 6.66679 17.9463 7.0537C18.3332 7.44061 18.6401 7.89994 18.8495 8.40547C19.0589 8.91099 19.1666 9.45281 19.1666 9.99998C19.1666 10.5472 19.0589 11.089 18.8495 11.5945C18.6401 12.1 18.3332 12.5593 17.9463 12.9463C17.5593 13.3332 17.1 13.6401 16.5945 13.8495C16.089 14.0589 15.5472 14.1666 15 14.1666H12.5M7.49998 14.1666H4.99998C4.4528 14.1666 3.91099 14.0589 3.40546 13.8495C2.89994 13.6401 2.44061 13.3332 2.0537 12.9463C1.2723 12.1649 0.833313 11.105 0.833313 9.99998C0.833313 8.89491 1.2723 7.8351 2.0537 7.0537C2.8351 6.2723 3.89491 5.83331 4.99998 5.83331H7.49998M6.66665 9.99998H13.3333" stroke="#1E1E1E" stroke-width="2" stroke-linecap="round" stroke-linejoin="round"/>
</g>
<defs>
<clipPath id="clip0_97_83">
<rect width="20" height="20" fill="white"/>
</clipPath>
</defs>
</svg>
